<?xml version="1.0" encoding="UTF-8" standalone="no"?>
<!DOCTYPE svg PUBLIC "-//W3C//DTD SVG 1.1//EN" "http://www.w3.org/Graphics/SVG/1.1/DTD/svg11.dtd">
<svg width="100%" height="100%" viewBox="0 0 171 171" version="1.1" xmlns="http://www.w3.org/2000/svg" xmlns:xlink="http://www.w3.org/1999/xlink" xml:space="preserve" xmlns:serif="http://www.serif.com/" style="fill-rule:evenodd;clip-rule:evenodd;stroke-linejoin:round;stroke-miterlimit:2;">
    <g transform="matrix(1.33333,0,0,1.33333,-827.063,-587.326)">
        <g transform="matrix(0.278888,0,0,0.305288,512.924,380.838)">
            <g id="Layer1">
                <path d="M637.827,614.687L580.67,614.687L499.568,404.187L426.856,614.687L385.005,614.687L477.501,346.913L477.495,346.898L513.608,330.638L590.75,530.858L590.75,234.531L391.51,234.531L391.51,195.411L829.109,195.411L829.109,234.531L629.87,234.531L629.87,528.094L710.858,325.813L746.608,342.539L746.691,342.504L746.723,342.593L746.76,342.61L746.744,342.651L843.971,614.687L802.032,614.687L724.586,397.995L637.827,614.687Z" style="fill:rgb(8,8,8);"/>
            </g>
        </g>
    </g>
</svg>
